<?xml version="1.0" encoding="utf-8"?>
<!-- Generator: Adobe Illustrator 23.0.3, SVG Export Plug-In . SVG Version: 6.00 Build 0)  -->
<svg version="1.1" id="Layer_1" xmlns="http://www.w3.org/2000/svg" xmlns:xlink="http://www.w3.org/1999/xlink" x="0px" y="0px"
	 viewBox="0 0 1200 1000" style="enable-background:new 0 0 1200 1000;" xml:space="preserve">
<style type="text/css">
	.st0{fill:#272525;}
	.st1{fill:#4F82C3;}
</style>
<g>
	<g>
		<g>
			<path class="st0" d="M47.9,743.6L41,760.7H20.5l38.2-88h20.5l37.6,88H95.5l-6.9-17.1H47.9z M68.4,693.4l-14,34.2h27.8L68.4,693.4
				z"/>
			<path class="st0" d="M174.8,699.7l-6.7,13.2c-7.4-4.1-15-6.5-20.6-6.5c-4.5,0-7.8,1.5-7.8,5c0,10.2,35.7,5,35.6,28.9
				c0,13.8-12.2,21.1-27.5,21.1c-10.9,0-21.6-3.3-29.3-9.4l6.3-13.1c7,5.4,16.1,8.4,23.5,8.4c4.9,0,8.5-1.6,8.5-5.3
				c0-10.8-35.1-5-35.1-28.8c0-13.9,11.9-21.1,26.6-21.1C157.7,692.2,167.3,694.9,174.8,699.7z"/>
			<path class="st0" d="M230.1,756.9c-5,2.9-11.3,4.6-17.6,4.6c-12.1,0-21.2-6.9-21.2-20.9v-31.3h-9.4v-13.3h9.4v-18.6h19.2v18.6
				h18.3v13.4h-18.3v27.9c0,5.7,2.4,7.9,6.5,7.8c2.5,0,5.5-0.9,9-2.5L230.1,756.9z"/>
			<path class="st0" d="M261.2,705.2c4.6-8.3,12.3-12.8,22.4-12.9v18.2c-13.8-1.3-22.4,6.2-22.4,17.6v32.5h-19.4v-67.6h19.4V705.2z"
				/>
			<path class="st0" d="M360.8,726.9c0,20.6-14.6,34.6-36.2,34.6c-21.7,0-36.3-13.9-36.3-34.6c0-20.7,14.6-34.4,36.3-34.4
				C346.3,692.4,360.8,706.1,360.8,726.9z M307.8,727.1c0,11.1,6.8,18.6,16.8,18.6c9.9,0,16.8-7.5,16.8-18.6
				c0-11.1-6.9-18.6-16.8-18.6C314.6,708.5,307.8,716.1,307.8,727.1z"/>
			<path class="st0" d="M441.6,672.7c22.4,0,35.2,11.1,35.2,30.5c0,20.5-12.8,32.3-35.2,32.3h-17.5v25.1h-19.9v-88H441.6z
				 M424.2,718.9h16.5c11.1,0,17.3-5,17.3-15.1c0-9.8-6.3-14.7-17.3-14.7h-16.5V718.9z"/>
			<path class="st0" d="M508.5,705.2c4.6-8.3,12.3-12.8,22.4-12.9v18.2c-13.8-1.3-22.4,6.2-22.4,17.6v32.5h-19.4v-67.6h19.4V705.2z"
				/>
			<path class="st0" d="M608.2,726.9c0,20.6-14.6,34.6-36.2,34.6c-21.7,0-36.3-13.9-36.3-34.6c0-20.7,14.6-34.4,36.3-34.4
				C593.6,692.4,608.2,706.1,608.2,726.9z M555.1,727.1c0,11.1,6.8,18.6,16.8,18.6c9.9,0,16.8-7.5,16.8-18.6
				c0-11.1-6.9-18.6-16.8-18.6C561.9,708.5,555.1,716.1,555.1,727.1z"/>
			<path class="st0" d="M658.2,693.1h21.1L657.8,726l23,34.7h-22.2L645,738.5l-14.8,22.1h-21.4l23.4-34.6l-21.7-33.1h22.1l12.4,20.5
				L658.2,693.1z"/>
			<path class="st0" d="M711.4,673.8c0,6.3-4.3,10.8-10.4,10.8c-6.2,0-10.4-4.5-10.4-10.8c0-6.3,4.3-10.8,10.4-10.8
				C707.1,663,711.4,667.5,711.4,673.8z M691.2,760.7v-67.6h19.4v67.6H691.2z"/>
			<path class="st0" d="M843.1,718.2v42.5h-19.2v-36.8c0-8.7-5-13.8-13.1-13.8c-9.3,0.1-15,7.4-15,17.2v33.4h-19.2v-36.8
				c0-8.7-5-13.8-12.9-13.8c-9.4,0.1-15.1,7.4-15.1,17.2v33.4h-19.4v-67.6h19.4v11.7c4.8-8.3,12.7-12.3,22.9-12.4
				c11.4,0,19.6,5.8,22.9,15.6c4.4-10.4,12.9-15.5,24.4-15.6C833.6,692.3,843.1,702.4,843.1,718.2z"/>
			<path class="st0" d="M899,752.7c-4.5,5.7-11.8,8.8-21.2,8.8c-14.5,0-23.2-8.8-23.2-21.1c0-12.7,9.2-20.2,25.8-20.4h18.6v-1.3
				c0-7.2-4.8-11.3-14.1-11.3c-6,0-13.1,2-20.1,5.9l-6-13.3c10.1-5,18.7-7.8,30.5-7.8c18.1,0,28.5,9,28.7,24.3l0.1,44.1h-19V752.7z
				 M898.9,737.5v-6h-15.2c-7.4,0-11.1,2.3-11.1,7.7c0,5.2,4,8.5,10.6,8.5C891.3,747.7,897.7,743.3,898.9,737.5z"/>
			<path class="st0" d="M1022.9,743.3v17.3h-57.6v-88h19.9v70.6H1022.9z"/>
			<path class="st0" d="M1092.3,743.3v17.3h-57.6v-88h19.9v70.6H1092.3z"/>
			<path class="st0" d="M1179.4,686.6l-11.6,14.1c-6-6.9-14.7-11.4-22.9-11.4c-15.1,0-26.8,11.7-26.8,27c0,15.3,11.7,27.1,26.8,27.1
				c7.9,0,16.6-4,22.9-10.3l11.7,12.7c-9.3,9.6-22.7,15.7-35.6,15.7c-26.3,0-46.1-19.5-46.1-45c0-25.4,20.2-44.5,46.9-44.5
				C1157.4,672.1,1170.7,677.7,1179.4,686.6z"/>
		</g>
	</g>
	<g>
		<g>
			<path class="st0" d="M26.5,806.1v7h11v3.6h-11v9.9h-4.1v-24.2h16.3l0,3.7H26.5z"/>
			<path class="st0" d="M67.1,819.3c-0.3,0-0.7,0-1.1,0h-5.7v7.3h-4.1v-24.2H66c6.2,0,9.8,3,9.8,8.3c0,3.9-1.8,6.6-5,7.9l5.4,8.1
				h-4.6L67.1,819.3z M66,815.7c3.7,0,5.9-1.6,5.9-4.9c0-3.2-2.1-4.7-5.9-4.7h-5.7v9.6H66z"/>
			<path class="st0" d="M118.7,814.5c0,6.9-5.6,12.3-12.8,12.3c-7.2,0-12.8-5.4-12.8-12.3c0-7,5.6-12.2,12.8-12.2
				C113.1,802.3,118.7,807.6,118.7,814.5z M97.2,814.5c0,4.8,4,8.6,8.7,8.6c4.7,0,8.6-3.8,8.6-8.6c0-4.8-3.9-8.5-8.6-8.5
				C101.2,806,97.2,809.7,97.2,814.5z"/>
			<path class="st0" d="M158.8,826.6l0-18.1l-7.6,15.6h-2.7l-7.6-15.6v18.1H137v-24.2h4.8l8,16.1l8-16.1h4.8v24.2H158.8z"/>
			<path class="st0" d="M214.5,806.1v20.5h-4.1v-20.5h-7.6v-3.7h19.4v3.7H214.5z"/>
			<path class="st0" d="M256.4,826.6v-10h-12.8v10h-4.1v-24.2h4.1v10.5h12.8v-10.5h4.1v24.2H256.4z"/>
			<path class="st0" d="M284.8,806.1v6.5h11.8v3.7h-11.8v6.7h13.6v3.7h-17.7v-24.2H298v3.7H284.8z"/>
			<path class="st0" d="M357.1,826.6l-12.9-17.4v17.4h-4.1v-24.2h4l13,17.4v-17.4h4v24.2H357.1z"/>
			<path class="st0" d="M385.4,806.1v6.5h11.8v3.7h-11.8v6.7h13.6v3.7h-17.7v-24.2h17.3v3.7H385.4z"/>
			<path class="st0" d="M421.3,821.2l-2.3,5.5h-4.3l10.7-24.2h4.2l10.6,24.2h-4.4l-2.3-5.5H421.3z M427.4,806.8l-4.6,10.8h9.1
				L427.4,806.8z"/>
			<path class="st0" d="M468.2,819.3c-0.3,0-0.7,0-1.1,0h-5.7v7.3h-4.1v-24.2h9.8c6.2,0,9.8,3,9.8,8.3c0,3.9-1.8,6.6-5,7.9l5.4,8.1
				h-4.6L468.2,819.3z M467.1,815.7c3.7,0,5.9-1.6,5.9-4.9c0-3.2-2.1-4.7-5.9-4.7h-5.7v9.6H467.1z"/>
			<path class="st0" d="M535.4,804.7l-1.7,3.6c-2.6-1.6-5.3-2.3-7.1-2.3c-2.4,0-3.9,0.9-3.9,2.5c0,5.3,13.1,2.5,13,11.2
				c0,4.3-3.8,7-9.1,7c-3.8,0-7.4-1.6-9.9-3.8l1.8-3.5c2.5,2.3,5.6,3.5,8.2,3.5c2.8,0,4.5-1.1,4.5-2.9c0-5.4-13.1-2.4-13.1-11
				c0-4.2,3.6-6.7,8.8-6.7C530.1,802.3,533.1,803.3,535.4,804.7z"/>
			<path class="st0" d="M563.2,806.1v20.5h-4.1v-20.5h-7.6v-3.7h19.4v3.7H563.2z"/>
			<path class="st0" d="M589.3,821.2l-2.3,5.5h-4.3l10.7-24.2h4.2l10.6,24.2h-4.4l-2.3-5.5H589.3z M595.4,806.8l-4.6,10.8h9.1
				L595.4,806.8z"/>
			<path class="st0" d="M636.2,819.3c-0.3,0-0.7,0-1.1,0h-5.7v7.3h-4.1v-24.2h9.8c6.2,0,9.8,3,9.8,8.3c0,3.9-1.8,6.6-5,7.9l5.4,8.1
				h-4.6L636.2,819.3z M635.1,815.7c3.7,0,5.9-1.6,5.9-4.9c0-3.2-2.1-4.7-5.9-4.7h-5.7v9.6H635.1z"/>
			<path class="st0" d="M695.8,806.1v20.5h-4.1v-20.5H684v-3.7h19.4v3.7H695.8z"/>
			<path class="st0" d="M743,814.5c0,6.9-5.6,12.3-12.8,12.3c-7.2,0-12.8-5.4-12.8-12.3c0-7,5.6-12.2,12.8-12.2
				C737.4,802.3,743,807.6,743,814.5z M721.5,814.5c0,4.8,4,8.6,8.7,8.6c4.7,0,8.6-3.8,8.6-8.6c0-4.8-3.9-8.5-8.6-8.5
				C725.4,806,721.5,809.7,721.5,814.5z"/>
			<path class="st0" d="M793.9,826.6h-4v-7.9l-9-16.3h4.1l6.9,11.8l6.8-11.8h4.1l-8.9,16.2V826.6z"/>
			<path class="st0" d="M842.5,814.5c0,6.9-5.6,12.3-12.8,12.3c-7.2,0-12.8-5.4-12.8-12.3c0-7,5.6-12.2,12.8-12.2
				C836.9,802.3,842.5,807.6,842.5,814.5z M821,814.5c0,4.8,4,8.6,8.7,8.6c4.7,0,8.6-3.8,8.6-8.6c0-4.8-3.9-8.5-8.6-8.5
				C825,806,821,809.7,821,814.5z"/>
			<path class="st0" d="M881.3,816.6c0,6.3-4,10.2-10.5,10.2s-10.5-3.9-10.5-10.2v-14.2h4.1v14.2c0,4.1,2.5,6.5,6.5,6.5
				c3.9,0,6.4-2.4,6.4-6.5v-14.2h4.1V816.6z"/>
			<path class="st0" d="M912,819.3c-0.3,0-0.7,0-1.1,0h-5.7v7.3h-4.1v-24.2h9.8c6.2,0,9.8,3,9.8,8.3c0,3.9-1.8,6.6-5,7.9l5.4,8.1
				h-4.6L912,819.3z M910.9,815.7c3.7,0,5.9-1.6,5.9-4.9c0-3.2-2.1-4.7-5.9-4.7h-5.7v9.6H910.9z"/>
			<path class="st0" d="M972.4,802.4c6.1,0,9.6,3,9.6,8.3c0,5.5-3.5,8.6-9.6,8.6h-5.6v7.3h-4.1v-24.2H972.4z M966.8,815.7h5.4
				c3.7,0,5.8-1.6,5.8-4.9c0-3.2-2.1-4.7-5.8-4.7h-5.4V815.7z"/>
			<path class="st0" d="M1016.8,826.6v-10h-12.8v10h-4.1v-24.2h4.1v10.5h12.8v-10.5h4.1v24.2H1016.8z"/>
			<path class="st0" d="M1064.7,814.5c0,6.9-5.6,12.3-12.8,12.3s-12.8-5.4-12.8-12.3c0-7,5.6-12.2,12.8-12.2
				S1064.7,807.6,1064.7,814.5z M1043.2,814.5c0,4.8,4,8.6,8.7,8.6c4.7,0,8.6-3.8,8.6-8.6c0-4.8-3.9-8.5-8.6-8.5
				C1047.2,806,1043.2,809.7,1043.2,814.5z"/>
			<path class="st0" d="M1100,826.6l-12.9-17.4v17.4h-4.1v-24.2h4l13,17.4v-17.4h4v24.2H1100z"/>
			<path class="st0" d="M1128.3,806.1v6.5h11.8v3.7h-11.8v6.7h13.6v3.7h-17.7v-24.2h17.3v3.7H1128.3z"/>
			<path class="st0" d="M1177.2,804.7l-1.7,3.6c-2.6-1.6-5.3-2.3-7.1-2.3c-2.4,0-3.9,0.9-3.9,2.5c0,5.3,13.1,2.5,13,11.2
				c0,4.3-3.8,7-9.1,7c-3.8,0-7.4-1.6-9.9-3.8l1.8-3.5c2.5,2.3,5.6,3.5,8.2,3.5c2.8,0,4.5-1.1,4.5-2.9c0-5.4-13.1-2.4-13.1-11
				c0-4.2,3.6-6.7,8.8-6.7C1171.9,802.3,1175,803.3,1177.2,804.7z"/>
		</g>
	</g>
	<g>
		<g>
			<path class="st1" d="M326.2,387.6c0,0,206.3-6.5,249-32.8c-0.5-3.3-0.8-6.6-0.8-10s0.3-6.7,0.8-9.9c-42.6-26.3-249-32.8-249-32.8
				s90.5,8.1,90.9,42.4v0.3l0.1,0.1C417.3,379.5,326.2,387.6,326.2,387.6z"/>
			<path class="st1" d="M873.8,375.6c-8.7-1-64-7.8-64.3-30.5v-0.3c0-22.6,54-29.5,64-30.6c-15.4,0.5-142.1,5.5-175.3,22.1
				c0.4,2.8,0.6,5.7,0.6,8.5s-0.2,5.7-0.6,8.4C731.4,370.2,860.1,375.2,873.8,375.6z"/>
			<path class="st1" d="M465.7,519.9c5.9-6.2,45.8-48,64.8-34.1l0.1,0.1h0.1c19,14.3-10.4,64.9-14.6,72
				c7.6-10.8,84-120.9,90.3-158.8c-5.1-2.8-9.7-6.2-13.8-10.3C558.3,405.7,474.2,509.4,465.7,519.9z"/>
			<path class="st1" d="M773.4,202.3c-4.3,4.5-34.6,36.2-48.9,25.7l-0.1-0.1h-0.1c-14.7-11.1,8.9-50.9,11.2-54.8
				c-3.8,5.5-60.6,87-67.9,117.9c4.3,2.5,8.3,5.5,11.9,8.9C706.6,284.7,767.2,210,773.4,202.3z"/>
			<path class="st1" d="M636.6,302.2c-23.6,0-42.7,19.1-42.7,42.7s19.1,42.7,42.7,42.7c23.7,0,42.8-19.1,42.8-42.7
				S660.2,302.2,636.6,302.2z"/>
		</g>
	</g>
</g>
</svg>
